Coordinates
version=1
nRows=27
nColumns=12
inDegrees=yes

Units are S.I. units (second, meters, Newtons, ...)
Angles are in degrees

endheader
time	SC_y	SC_z	SC_x	AC_y	AC_z	AC_x	GH_y	GH_z	GH_yy	EL_x	PS_y
       0.0              -26.66          14.79          44.44          51.58        -0.7418          -8.42         -173.2          54.69          91.88          28.05          91.94
   0.01963              -26.66          14.79          44.44          51.58        -0.7418         -8.419         -173.1          54.69          91.84          28.07          91.95
   0.03927              -26.66          14.79          44.44          51.58        -0.7418         -8.418         -173.1          54.69          91.81          28.08          91.95
    0.0589              -26.66          14.79          44.43          51.58        -0.7417         -8.417         -173.1          54.69          91.77           28.1          91.96
   0.07853              -26.65          14.79          44.43          51.58        -0.7417         -8.415         -173.1          54.69          91.73          28.11          91.96
   0.09816              -26.65          14.79          44.42          51.57        -0.7416         -8.414         -173.0          54.69          91.68          28.13          91.97
    0.1178              -26.65          14.79          44.42          51.57        -0.7416         -8.413         -173.0          54.69          91.64          28.15          91.98
    0.1374              -26.65          14.78          44.42          51.57        -0.7415         -8.411         -173.0          54.69          91.59          28.17          91.98
    0.1571              -26.65          14.78          44.41          51.57        -0.7415         -8.409         -173.0          54.68          91.54          28.19          91.99
    0.1767              -26.64          14.78          44.41          51.57        -0.7414         -8.408         -172.9          54.68          91.48          28.21           92.0
    0.1963              -26.64          14.78           44.4          51.57        -0.7414         -8.406         -172.9          54.68          91.42          28.24          92.01
     0.216              -26.64          14.78           44.4          51.56        -0.7413         -8.404         -172.8          54.68          91.36          28.27          92.02
    0.2356              -26.64          14.78          44.39          51.56        -0.7412         -8.401         -172.8          54.68          91.29           28.3          92.03
    0.2552              -26.63          14.78          44.38          51.56        -0.7412         -8.399         -172.7          54.68          91.21          28.33          92.04
    0.2749              -26.63          14.77          44.38          51.56        -0.7411         -8.396         -172.7          54.68          91.13          28.36          92.05
    0.2945              -26.63          14.77          44.37          51.55         -0.741         -8.393         -172.6          54.68          91.04           28.4          92.07
    0.3141              -26.62          14.77          44.36          51.55        -0.7409          -8.39         -172.6          54.68          90.94          28.44          92.08
    0.3338              -26.62          14.77          44.35          51.55        -0.7408         -8.387         -172.5          54.68          90.84          28.48           92.1
    0.3534              -26.62          14.76          44.34          51.54        -0.7406         -8.383         -172.4          54.68          90.72          28.53          92.11
     0.373              -26.61          14.76          44.33          51.54        -0.7405         -8.379         -172.4          54.67          90.59          28.58          92.13
    0.3927              -26.61          14.76          44.32          51.54        -0.7404         -8.375         -172.3          54.67          90.46          28.64          92.15
    0.4123               -26.6          14.75          44.31          51.53        -0.7402          -8.37         -172.2          54.67           90.3           28.7          92.17
    0.4319              -26.59          14.75          44.29          51.53          -0.74         -8.365         -172.1          54.67          90.14          28.77           92.2
    0.4516              -26.59          14.74          44.28          51.52        -0.7398         -8.359         -172.0          54.67          89.95          28.85          92.23
    0.4712              -26.58          14.74          44.26          51.51        -0.7396         -8.352         -171.8          54.66          89.74          28.93          92.26
    0.4908              -26.57          14.73          44.24          51.51        -0.7394         -8.345         -171.7          54.66          89.51          29.03          92.29
    0.5105              -26.56          14.73          44.22           51.5        -0.7391         -8.336         -171.5          54.66          89.25          29.14          92.33
